<svg width="30" height="31" viewBox="0 0 30 31" fill="none" xmlns="http://www.w3.org/2000/svg">
<path d="M4.69247 2.63386H7.10724V5.85533C7.10724 6.75119 7.52358 7.54253 8.19563 8.09293C8.76374 8.55887 9.51965 8.84706 10.3269 8.84706C11.1342 8.84706 11.8901 8.55887 12.4582 8.09293C13.1303 7.54253 13.5472 6.75119 13.5472 5.85533V2.63386H18.4216V5.85533C18.4216 6.75119 18.8386 7.54253 19.5106 8.09293C20.0787 8.55887 20.834 8.84706 21.6419 8.84706C22.4492 8.84706 23.2051 8.55887 23.7732 8.09293C24.4453 7.54253 24.8616 6.75119 24.8616 5.85533V2.63386H27.3821C28.8224 2.63386 30 3.81142 30 5.25178V11.3303V26.8353C30 27.5558 29.7053 28.2101 29.2311 28.6843C28.7551 29.1585 28.1008 29.4532 27.3821 29.4532H15.3638C15.5049 29.1792 15.6254 28.8857 15.7128 28.5875C15.7376 28.5036 15.76 28.4197 15.7801 28.3353H26.5435C27.6762 28.3353 28.6028 27.4052 28.6028 26.2766V10.2124H3.47239V14.4496C2.97161 14.4118 2.50566 14.4366 2.07515 14.5134V11.3303V5.25119C2.07515 3.81379 3.25507 2.63386 4.69247 2.63386ZM21.3561 20.8766H24.786C25.0264 20.8766 25.223 21.0744 25.223 21.3136V24.1666C25.223 24.4058 25.0252 24.6036 24.786 24.6036H21.3561C21.1169 24.6036 20.9191 24.4069 20.9191 24.1666V21.3136C20.9191 21.0733 21.1157 20.8766 21.3561 20.8766ZM7.28913 13.4593H10.7185C10.9588 13.4593 11.1555 13.6571 11.1555 13.8963V16.7492C11.1555 16.9884 10.9576 17.1863 10.7185 17.1863H7.28913C7.04996 17.1863 6.85212 16.9896 6.85212 16.7492V13.8963C6.85212 13.6559 7.04878 13.4593 7.28913 13.4593ZM21.3561 13.4593H24.786C25.0258 13.4593 25.223 13.6571 25.223 13.8963V16.7492C25.223 16.9884 25.0252 17.1863 24.786 17.1863H21.3561C21.1169 17.1863 20.9191 16.9896 20.9191 16.7492V13.8963C20.9191 13.6559 21.1157 13.4593 21.3561 13.4593ZM14.508 13.4593H17.9374C18.1777 13.4593 18.3744 13.6571 18.3744 13.8963V16.7492C18.3744 16.9884 18.1766 17.1863 17.9374 17.1863H14.508C14.2689 17.1863 14.071 16.9896 14.071 16.7492V13.8963C14.071 13.6559 14.2677 13.4593 14.508 13.4593ZM14.508 20.8766H17.9374C18.1777 20.8766 18.3744 21.0744 18.3744 21.3136V24.1666C18.3744 24.4058 18.1766 24.6036 17.9374 24.6036H14.508C14.2689 24.6036 14.071 24.4069 14.071 24.1666V21.3136C14.071 21.0733 14.2677 20.8766 14.508 20.8766ZM4.04346 22.3819C4.46925 23.1095 4.95763 23.8081 5.57003 24.453C6.27515 25.2 7.15271 25.8804 8.29012 26.4597C8.37457 26.5016 8.45429 26.5016 8.52516 26.4721C8.76965 26.3782 8.99819 26.0729 9.15055 25.8674C9.58756 25.2922 10.1291 24.5788 10.8933 24.9355C10.9098 24.9437 10.9228 24.9526 10.9393 24.9609L13.4876 26.426C13.4958 26.4302 13.5041 26.4384 13.5124 26.4426C13.8484 26.6741 13.9872 27.0308 13.9913 27.4335C13.9913 27.8451 13.8401 28.3069 13.6175 28.6973C12.7181 30.2782 10.1569 30.4867 8.57181 29.9983C7.4846 29.6628 5.96984 28.7741 5.00724 28.0548C3.54208 26.9504 2.05211 25.3554 1.08243 23.6008C0.267466 22.1274 -0.17722 20.5365 0.0666785 19.0205C0.200734 18.1896 0.557427 17.4337 1.17869 16.9341C1.72022 16.4977 2.45074 16.2585 3.39562 16.3424C3.50487 16.3506 3.60113 16.4138 3.65133 16.5059L5.2848 19.2685C5.52397 19.5792 5.55291 19.8857 5.42299 20.1916C5.31374 20.4437 5.09582 20.6746 4.79759 20.8931C4.5035 21.1453 3.7848 21.5239 3.83145 21.9544C3.8468 22.089 3.96846 22.2538 4.04346 22.3819ZM20.3775 1.03642C20.3775 0.464765 20.9433 0 21.6419 0C22.3405 0 22.9057 0.464765 22.9057 1.03642V5.85533C22.9057 6.42698 22.3405 6.89174 21.6419 6.89174C20.9433 6.89174 20.3775 6.42698 20.3775 5.85533V1.03642ZM9.06315 1.03642C9.06315 0.464765 9.62831 0 10.3269 0C11.0256 0 11.5913 0.464765 11.5913 1.03642V5.85533C11.5913 6.42698 11.0256 6.89174 10.3269 6.89174C9.62831 6.89174 9.06315 6.42698 9.06315 5.85533V1.03642Z" fill="#B3B3B3"/>
</svg>
