<svg width="17" height="19" viewBox="0 0 17 19" fill="none" xmlns="http://www.w3.org/2000/svg">
<path d="M16.4756 5.87235C16.6616 5.45759 16.6699 4.34689 16.5 3.13688C16.4309 2.65476 16.3449 2.24581 16.2531 1.98509L16.1839 1.77688L15.972 1.61005C14.3087 0.292243 9.49997 0 8.49998 0C7.5 0 2.60114 0.69331 1.4279 1.61156C1.23268 1.76179 1.22516 1.77305 1.15939 1.92507C0.898177 2.55001 0.690502 4.43758 0.787452 5.32681C0.848977 5.8915 0.963294 6.08091 1.31593 6.20074C1.55602 6.28313 1.71363 6.27176 2.46044 6.12491C3.97847 5.82931 4.95805 5.50969 5.24905 5.21868C5.46496 5.00278 5.497 4.79075 5.43561 4.02344C5.41516 3.75516 5.40782 3.52252 5.42096 3.50938C5.46226 3.46807 5.89015 3.28767 6.16226 3.19555C7.13058 2.87593 9.5434 2.81146 10.5395 3.01152C10.9091 3.08444 11.5337 3.28851 11.8019 3.42154L11.9801 3.50959L11.9725 3.64843C11.9687 3.72348 11.9516 3.95051 11.9365 4.15315C11.8854 4.77419 11.9171 4.96367 12.1102 5.18304C12.1909 5.27492 12.2621 5.33116 12.3934 5.39861C12.6297 5.51852 13.2449 5.72823 13.7514 5.85546C14.3254 6.00141 15.481 6.23326 15.7024 6.24436C16.0232 6.26103 16.3779 6.09005 16.4756 5.87235Z" fill="white"/>
<path d="M4.99998 9.49996C4.99998 10.3284 4.32841 11 3.49998 11C2.67156 11 1.99998 10.3284 1.99998 9.49996C1.99998 8.67153 2.67156 7.99996 3.49998 7.99996C4.32841 7.99996 4.99998 8.67153 4.99998 9.49996Z" fill="white"/>
<path d="M4.99998 13.5C4.99998 14.3284 4.32841 15 3.49998 15C2.67156 15 1.99998 14.3284 1.99998 13.5C1.99998 12.6715 2.67156 12 3.49998 12C4.32841 12 4.99998 12.6715 4.99998 13.5Z" fill="white"/>
<path d="M9.99998 9.49996C9.99998 10.3284 9.32841 11 8.49998 11C7.67156 11 6.99998 10.3284 6.99998 9.49996C6.99998 8.67153 7.67156 7.99996 8.49998 7.99996C9.32841 7.99996 9.99998 8.67153 9.99998 9.49996Z" fill="white"/>
<path d="M9.99998 13.5C9.99998 14.3284 9.32841 15 8.49998 15C7.67156 15 6.99998 14.3284 6.99998 13.5C6.99998 12.6715 7.67156 12 8.49998 12C9.32841 12 9.99998 12.6715 9.99998 13.5Z" fill="white"/>
<path d="M9.99998 17.5C9.99998 18.3284 9.32841 19 8.49998 19C7.67156 19 6.99998 18.3284 6.99998 17.5C6.99998 16.6715 7.67156 16 8.49998 16C9.32841 16 9.99998 16.6715 9.99998 17.5Z" fill="white"/>
<path d="M15 9.49996C15 10.3284 14.3284 11 13.5 11C12.6716 11 12 10.3284 12 9.49996C12 8.67153 12.6716 7.99996 13.5 7.99996C14.3284 7.99996 15 8.67153 15 9.49996Z" fill="white"/>
<path d="M15 13.5C15 14.3284 14.3284 15 13.5 15C12.6716 15 12 14.3284 12 13.5C12 12.6715 12.6716 12 13.5 12C14.3284 12 15 12.6715 15 13.5Z" fill="white"/>
</svg>
