<svg width="22" height="19" viewBox="0 0 22 19" fill="none" xmlns="http://www.w3.org/2000/svg">
<path d="M10 9L15.76 1.62C15.9224 1.41153 15.9957 1.14726 15.9638 0.88493C15.932 0.622602 15.7976 0.383546 15.59 0.22C15.4222 0.0850457 15.2152 0.00788566 15 0H1.00001C0.774445 0.0013084 0.555948 0.0788394 0.380009 0.22C0.172444 0.383546 0.038051 0.622602 0.00619691 0.88493C-0.0256572 1.14726 0.0476173 1.41153 0.210009 1.62L6.00001 9V14.87C5.98192 15.0213 5.99864 15.1747 6.0489 15.3186C6.09916 15.4624 6.18163 15.5929 6.29001 15.7L8.29001 17.7C8.47737 17.8863 8.73082 17.9908 8.99501 17.9908C9.2592 17.9908 9.51265 17.8863 9.70001 17.7C9.81018 17.5938 9.89452 17.4638 9.94653 17.3199C9.99854 17.176 10.0168 17.0221 10 16.87V9ZM12 14L17 19L22 14H12Z" fill="#575757"/>
</svg>
