<svg width="30" height="30" viewBox="0 0 30 30" fill="none" xmlns="http://www.w3.org/2000/svg">
<path d="M9.49249 0.233949C9.22632 0.365598 8.80288 0.668391 8.56092 0.90536L8.11328 1.32664L10.9806 4.53888L13.8358 7.76428L14.235 7.343C15.1666 6.35564 15.3844 4.99965 14.7794 3.86747C14.2592 2.8801 11.7912 0.312939 11.1862 0.12863C10.5208 -0.0688438 10.0611 -0.0425143 9.49249 0.233949Z" fill="white"/>
<path d="M6.67293 2.97267C4.84608 5.25019 4.57992 8.51508 6.04382 10.8321L6.43096 11.4377H8.05213C9.66121 11.4377 9.68541 11.4377 10.0484 11.7931C10.2903 12.0301 10.4718 12.3855 10.5686 12.8068C10.7743 13.6625 11.0404 13.781 11.7421 13.2676C12.6495 12.6094 13.0366 12.7542 14.4158 14.2945C15.4321 15.4135 15.6136 15.7163 15.6136 16.2429C15.6136 16.6378 15.3595 17.2302 15.0813 17.4804C14.8151 17.7305 15.0692 18.2834 15.4684 18.2834C15.9281 18.2834 16.5814 18.6784 16.7629 19.0865C16.896 19.3498 16.9444 19.929 16.9444 21.1534V22.8385L18.4325 24.4314C19.2431 25.3003 20.1504 26.1692 20.4529 26.3535C22.7516 27.7753 25.7399 27.275 27.6514 25.1291L28.1232 24.6025L25.2317 21.5351L22.3402 18.4677L21.9047 18.5994C21.6627 18.6652 21.3119 18.6784 21.1062 18.6257C20.8642 18.5599 19.6181 17.296 17.0291 14.4919C14.9724 12.2671 13.2181 10.2923 13.1213 10.0949C12.9278 9.68675 12.9036 8.96268 13.0729 8.67306C13.1576 8.51508 12.5769 7.80418 10.3145 5.34235C8.74174 3.63091 7.41092 2.22227 7.36253 2.22227C7.32624 2.22227 7.01168 2.56456 6.67293 2.97267Z" fill="white"/>
<path d="M6.57698 12.5699C6.49229 12.6094 6.3955 13.0043 6.34711 13.4387C6.27452 14.0838 6.21403 14.255 6.02045 14.3076C5.88737 14.3471 5.53652 14.5051 5.23406 14.6762L4.67754 14.979L4.15731 14.4656C3.87905 14.176 3.5766 13.939 3.50401 13.939C3.24994 13.939 1.45939 15.9532 1.45939 16.2297C1.45939 16.3877 1.64087 16.7431 1.87073 17.0196L2.26998 17.5462L2.00381 18.2044C1.85864 18.573 1.70136 18.968 1.66506 19.0865C1.61667 19.2313 1.3868 19.3366 0.96336 19.3893C0.600411 19.4419 0.24956 19.5472 0.164872 19.6262C-0.0528977 19.8105 -0.0528977 22.641 0.152774 22.8648C0.237462 22.9569 0.576214 23.0228 0.927065 23.0228H1.55618L1.82234 23.8126C1.96752 24.2471 2.14899 24.642 2.20949 24.6815C2.26998 24.721 2.0885 25.037 1.82234 25.3924C1.55618 25.7347 1.33841 26.077 1.33841 26.1428C1.33841 26.3403 3.33463 28.4203 3.5282 28.4203C3.63709 28.4203 3.79436 28.3282 3.87905 28.2229C3.96374 28.1044 4.18151 27.8937 4.36299 27.7621C4.68964 27.512 4.68964 27.512 5.47603 27.8543L6.27452 28.1834L6.34711 28.9601C6.4076 29.5262 6.49229 29.7763 6.66166 29.8685C6.78265 29.9343 7.43596 30.0001 8.10136 30.0001C9.54106 30.0001 9.68624 29.908 9.68624 28.9338C9.68624 28.3414 9.72254 28.2755 10.025 28.1439C10.2065 28.0781 10.5815 27.8937 10.8719 27.7358L11.38 27.4725L11.8639 27.9464C12.1301 28.2097 12.4326 28.4203 12.5414 28.4203C12.7834 28.4203 14.6465 26.4193 14.6465 26.1692C14.6465 26.0638 14.4409 25.7215 14.1868 25.4056L13.715 24.8132L14.09 23.918L14.453 23.0228H15.0821C15.4692 23.0228 15.7596 22.9569 15.8443 22.8384C15.9411 22.72 15.9774 22.1275 15.9532 21.1007L15.9169 19.5341L15.1789 19.4156L14.453 19.2971L14.0779 18.4019L13.7029 17.5199L14.1142 17.0854C14.8038 16.3613 14.7917 16.2692 13.6666 15.0449C13.1101 14.4393 12.6019 13.939 12.5293 13.939C12.4689 13.939 12.1664 14.176 11.876 14.4524L11.3437 14.9527L10.5452 14.5841L9.74673 14.2155L9.71044 13.5177C9.68624 13.136 9.61365 12.7542 9.54106 12.662C9.45637 12.5435 9.02083 12.4909 8.06507 12.504C7.32707 12.504 6.66166 12.5435 6.57698 12.5699ZM8.98454 18.0464C9.57736 18.2439 10.4726 19.0733 10.7872 19.7447C11.8518 22.0222 10.0492 24.8527 7.72632 24.563C6.10514 24.3524 4.9679 22.9569 4.9679 21.2192C4.98 18.9285 6.93992 17.375 8.98454 18.0464Z" fill="white"/>
<path d="M24.2168 16.5195C23.987 16.6248 23.624 16.9276 23.3941 17.1909L22.9707 17.6648L25.8501 20.7981L28.7295 23.9445L29.1408 23.51C29.9877 22.6411 30.2297 21.3641 29.7699 20.3241C29.4675 19.6264 26.8059 16.7696 26.2251 16.5063C25.6686 16.2562 24.7492 16.2562 24.2168 16.5195Z" fill="white"/>
</svg>
