<svg xmlns="http://www.w3.org/2000/svg" viewBox="0 0 83.62 83.62"><defs><style>.cls-1{fill:#047bd5;}.cls-2{fill:none;stroke:#047bd5;stroke-miterlimit:10;stroke-width:2.3px;}</style></defs><g id="Layer_2" data-name="Layer 2"><g id="Layer_1-2" data-name="Layer 1"><circle class="cls-1" cx="28.67" cy="63.27" r="2.82"/><circle class="cls-1" cx="54.94" cy="20.31" r="2.82"/><path class="cls-1" d="M56.81,68.36a16.84,16.84,0,0,1-6.75,3,35.53,35.53,0,0,1-5.73.47c-5.76.06-11.52,0-17.28,0a8.62,8.62,0,0,1-8.55-8.67,8.28,8.28,0,0,1,8-8.36c6.2-.29,12.42-.16,18.63-.25a3.57,3.57,0,0,0,1.65-.38c1.54-.83,1.22-2.63-.27-3.33A3.66,3.66,0,0,0,45,50.51c-2.78,0-5.57.13-8.34-.08a19.67,19.67,0,0,1-10.49-4.12,21.34,21.34,0,0,1-5.65-6.71,10.61,10.61,0,0,1-1.39-6.72c.53-3.84,4.65-7.13,8.73-7.11,9.3.05,18.59,0,27.88,0a5.83,5.83,0,0,0,6-4.9,4.8,4.8,0,0,0-2.62-5.18,6.13,6.13,0,0,0-3.24-.87c-5.37,0-10.74,0-16.1,0-3.92.07-7.83.32-11.74.51-.54,0-1.07.16-1.64.17,2.85-2,5.89-3.61,9.48-3.67,6.79-.12,13.59-.3,20.39-.2a8.5,8.5,0,0,1,8.56,10.08,8.16,8.16,0,0,1-8.27,7.09c-5.91.16-11.84,0-17.76.08a4.68,4.68,0,0,0-2.23.7,1.62,1.62,0,0,0-.51,2.1A1.75,1.75,0,0,0,37.85,33c1.66,0,3.34,0,5,0a29.08,29.08,0,0,1,8.3.94,16.45,16.45,0,0,1,6.53,3.54c2.07,1.95,4.11,3.87,5.39,6.5,1.47,3,2.14,6,.55,9.1-1.68,3.28-4.55,4.69-8.13,4.71q-13.89,0-27.78,0a5.45,5.45,0,0,0-5.11,2.8,5.15,5.15,0,0,0-.09,5.2A5,5,0,0,0,27,68.7c7.42,0,14.85,0,22.27-.07,2.24,0,4.47-.35,6.71-.53.27,0,.55,0,.83,0ZM28.89,28.94c0,1-.06,1.9,0,2.8a8.71,8.71,0,0,0,4.72,7.43,11.24,11.24,0,0,0,5.67,1.1,65.75,65.75,0,0,1,8.31.22A11.87,11.87,0,0,1,57.73,51.42c.06.9,0,1.8,0,2.72,1.45-.18,3.48-2.45,3.53-4.09A8.5,8.5,0,0,0,59.83,45a19.78,19.78,0,0,0-3.9-4.77,17.25,17.25,0,0,0-7.19-3.59,16.85,16.85,0,0,0-3.48-.36c-2.48-.06-5,.06-7.45-.07a5,5,0,0,1-4.88-3.57,13,13,0,0,1-.06-3.65ZM54.76,54.56c-.13-1.49-.16-2.88-.38-4.23a8.4,8.4,0,0,0-7-6.72c-3-.25-6.08-.07-9.11-.22a15.66,15.66,0,0,1-4.58-.78,11.79,11.79,0,0,1-7.67-9,35.19,35.19,0,0,1-.42-4c-1.76.18-3.59,3.12-3.14,5.45a13.17,13.17,0,0,0,2.16,5.13,15.88,15.88,0,0,0,13.65,7.07c2.61,0,5.23,0,7.84.08a4.7,4.7,0,0,1,4.28,3.11,5.27,5.27,0,0,1,.13,4.16Z"/><path class="cls-1" d="M63.72,59.45a8.35,8.35,0,0,1-5.86,5.22,9.6,9.6,0,0,1-2.39.3q-13.94,0-27.86,0A2.1,2.1,0,0,1,26,64.14a2,2,0,0,1,0-1.76,2.28,2.28,0,0,1,1.64-.74c3.73-.06,7.46,0,11.18,0,5.66,0,11.32,0,17,0,2.35,0,4.69-.21,6.7-1.66.33-.23.64-.48,1-.72Z"/><path class="cls-1" d="M19.82,24A8.07,8.07,0,0,1,23,20.13a8.41,8.41,0,0,1,5.05-1.48q13.79,0,27.58,0c1.4,0,2.11.54,2.1,1.59s-.82,1.61-2.15,1.62q-14.22,0-28.46,0a11.11,11.11,0,0,0-6.61,1.91A2.75,2.75,0,0,1,19.82,24Z"/><circle class="cls-2" cx="41.81" cy="41.81" r="40.66"/></g></g></svg>