<svg width="25" height="25" viewBox="0 0 25 25" fill="none" xmlns="http://www.w3.org/2000/svg">
<g clip-path="url(#clip0_695_44467)">
<path d="M5.94249 4.42779C5.56314 4.04604 4.94896 4.04329 4.56684 4.42504C4.1861 4.80541 4.18332 5.42006 4.56267 5.80181L9.25801 10.001C10.1709 10.697 11.3548 10.686 12.2692 9.86736L15.857 6.22904L15.9181 7.40322C15.9431 7.90487 16.3753 8.29213 16.8811 8.26732C17.3869 8.24252 17.7773 7.81391 17.7523 7.31226L17.5884 4.04329C17.5661 3.59677 17.2201 3.23982 16.788 3.18608L13.3072 2.7492C12.8041 2.68581 12.3414 3.03724 12.2775 3.53888C12.2136 4.03777 12.5679 4.4967 13.0737 4.56009L14.5842 4.7489L10.6323 8.49747L5.94249 4.42779Z" fill="#047BD5"/>
<path d="M8.28627 16.5669C9.5855 16.1989 10.9209 15.9329 12.3493 15.8943C13.7805 15.853 15.3146 16.0459 17.0071 16.5917C17.1308 16.6316 17.21 16.7102 17.2503 16.808C17.3156 16.9555 17.3364 17.1471 17.3378 17.3607C17.3378 17.5233 17.3086 17.759 17.2711 18.0084C17.1349 18.9979 16.964 20.2231 18.0701 20.6228C18.0951 20.631 18.1159 20.6352 18.141 20.6434L22.0942 21.7005C22.1067 21.7046 22.1234 21.7046 22.1359 21.7087C22.6945 21.8135 23.1822 21.5999 23.5838 21.2099C23.9896 20.8074 24.2953 20.2093 24.4606 19.6098C24.6802 18.8188 24.5885 18.0635 24.3203 17.3538C24.066 16.6771 23.6644 16.0445 23.2378 15.4754C22.5681 14.5823 21.758 13.9249 20.7728 13.4081C19.8098 12.9024 18.6912 12.5427 17.3809 12.2353L17.285 12.2147C16.6819 12.0741 16.0302 11.9239 15.3438 11.8246C12.812 11.4718 9.77309 11.5752 7.0857 12.3414C4.83185 12.9864 2.82395 14.1069 1.57058 15.824C0.884142 16.7667 0.49229 17.8554 0.611791 18.9497C0.714617 19.9061 1.19957 20.8529 2.21255 21.695C2.32788 21.7928 2.48629 21.8259 2.62525 21.7845L6.95647 20.6806C7.49701 20.6104 7.82911 20.3389 8.0028 19.913C8.14315 19.5616 8.15704 19.1206 8.07645 18.6162C8.06394 18.4577 8.03476 18.2799 8.00558 18.0966C7.90553 17.482 7.79854 16.775 8.29461 16.5613L8.28627 16.5669Z" fill="#047BD5"/>
</g>
<defs>
<clipPath id="clip0_695_44467">
<rect width="24" height="24" fill="white" transform="translate(0.5 0.5)"/>
</clipPath>
</defs>
</svg>
