<svg width="55" height="57" viewBox="0 0 55 57" fill="none" xmlns="http://www.w3.org/2000/svg">
<path d="M4.13298 19.1241C3.62499 19.4125 3.11699 20.0919 1.03478 23.2517C-0.316151 25.3091 -0.332898 25.95 0.917548 27.1293C1.39763 27.578 1.5037 27.6485 1.55952 27.578C1.5986 27.5267 2.72065 25.8667 4.04366 23.8798C6.04773 20.8803 6.44408 20.2522 6.38825 20.1752C6.24869 19.983 5.41134 19.2908 5.13781 19.1498C4.7917 18.9639 4.42885 18.9511 4.13298 19.1241Z" fill="#047BD5"/>
<path d="M20.1942 19.1112C19.848 19.2715 18.8321 20.1431 18.8656 20.2521C18.9158 20.3995 23.672 27.6484 23.7222 27.6484C23.8059 27.6484 24.7382 26.764 24.8833 26.546C25.1569 26.1294 25.2183 25.9243 25.1959 25.5013C25.1624 24.8796 24.8945 24.3605 23.5826 22.3287C21.6902 19.3997 21.3944 19.0536 20.7524 19.0151C20.5403 19.0023 20.3505 19.0343 20.1942 19.1112Z" fill="#047BD5"/>
<path d="M10.0769 20.5641C9.41823 20.6539 8.45248 20.7372 7.93891 20.75L6.99549 20.7821L4.52251 24.4802L2.04395 28.1784L2.27282 28.4796L2.5017 28.7873L2.71383 28.6078C3.37813 28.0566 4.42203 28.2361 5.01934 28.9988C5.35428 29.4282 5.51617 29.8384 5.54408 30.3127L5.56641 30.7101L5.96834 30.7357C6.27537 30.7614 6.44284 30.8126 6.66613 30.9472C7.26344 31.3254 7.73236 32.133 7.73236 32.7995V33.0751L8.09521 33.1136C8.78184 33.1905 9.41265 33.7032 9.73084 34.4403C9.85924 34.748 9.88157 34.8697 9.88157 35.3825C9.88157 35.8247 9.89831 35.9785 9.95414 35.9785C10.1049 35.9785 10.5626 36.299 10.7859 36.5682C11.2995 37.1771 11.4502 38.0231 11.1711 38.7153L11.0371 39.0422L11.5004 39.4652C11.7517 39.6959 12.0308 39.9139 12.1201 39.9523C12.656 40.1895 13.3705 39.5037 13.3705 38.7474C13.3705 38.4846 13.3594 38.4718 12.7732 37.927C12.4383 37.6257 12.148 37.3309 12.1257 37.2796C12.0475 37.1322 12.1313 36.8887 12.2876 36.7669C12.4774 36.6259 12.522 36.6579 13.4096 37.4719C13.7725 37.8052 14.1465 38.1 14.2358 38.1192C14.4535 38.1705 14.8834 38.0231 15.1346 37.8052C15.5421 37.4527 15.7375 36.5874 15.5197 36.1067C15.4751 36.0042 15.1178 35.626 14.7326 35.2671C13.9623 34.5557 13.8618 34.4083 14.0013 34.1583C14.1297 33.9404 14.2916 33.8955 14.4758 34.0301C14.5596 34.0942 15.0062 34.4916 15.4639 34.9146C15.9273 35.3376 16.3738 35.7222 16.4576 35.7734C16.6976 35.9144 17.1665 35.8439 17.4401 35.6388C17.775 35.3825 18.0039 34.889 18.0039 34.4211C18.0039 34.216 17.9648 33.966 17.9202 33.8635C17.8699 33.7545 17.3954 33.2674 16.8539 32.7675C16.318 32.274 15.8491 31.7997 15.8156 31.7163C15.6984 31.4151 16.0222 31.0818 16.2789 31.2421C16.3515 31.2805 17.0214 31.883 17.7694 32.5688L19.1371 33.825H19.4218C19.8851 33.825 20.315 33.4981 20.5439 32.9662C20.6778 32.6713 20.6778 32.1009 20.555 31.8253C20.421 31.5433 14.4703 26.0762 14.0125 25.8134C13.7166 25.6467 13.6217 25.6275 13.2031 25.6339C12.9407 25.6403 12.282 25.7236 11.7405 25.8134C10.2891 26.0569 9.76434 26.0249 9.10004 25.6595C8.72044 25.448 8.26268 24.9353 8.08963 24.5251C7.81051 23.8778 7.91658 23.083 8.32409 22.7177C8.50273 22.551 8.88791 22.4228 9.47964 22.3267C9.78108 22.2754 10.4342 22.0319 11.6456 21.5191C12.5946 21.1153 13.4264 20.7885 13.4822 20.7885C13.6887 20.7885 13.5938 20.6667 13.3035 20.5641C12.8067 20.3847 11.5004 20.3847 10.0769 20.5641Z" fill="#047BD5"/>
<path d="M17.7984 20.8868C17.335 21.0919 16.6875 21.2137 15.3533 21.3355C14.7392 21.3932 14.0582 21.4829 13.8461 21.5342C13.6283 21.579 12.7017 21.9444 11.7806 22.3353C10.4855 22.8801 9.98307 23.066 9.57556 23.1365C9.28528 23.1878 8.9615 23.2711 8.8666 23.3224C8.51491 23.5018 8.54841 24.0338 8.93917 24.5081C9.35785 25.0208 10.0333 25.258 10.759 25.149C10.9544 25.1234 11.602 25.0208 12.1993 24.9247C13.1036 24.7837 13.3436 24.7709 13.6228 24.8221C14.2759 24.9503 14.622 25.2259 17.5527 27.9178C19.0879 29.3215 20.3662 30.4688 20.4053 30.4688C20.5337 30.4688 21.5888 29.8278 22.0019 29.4945C22.5266 29.0843 23.2132 28.3088 23.1518 28.1999C22.9732 27.8473 18.2505 20.7266 18.2059 20.733C18.1724 20.733 17.9882 20.8035 17.7984 20.8868Z" fill="#047BD5"/>
<path d="M3.29083 29.1121C3.14011 29.189 1.92874 30.6696 1.80593 30.9324C1.60496 31.3426 1.71661 31.9643 2.05713 32.3745C2.33067 32.7078 2.59862 32.8359 3.00055 32.8359H3.35224L4.00537 32.0476C4.66967 31.2528 4.88738 30.8875 4.88738 30.567C4.88738 30.0607 4.56919 29.4839 4.15051 29.2403C3.89931 29.0929 3.46388 29.0288 3.29083 29.1121Z" fill="#047BD5"/>
<path d="M5.51139 31.5594C5.39416 31.5978 5.16529 31.8157 4.86384 32.1811C3.93159 33.3027 3.88135 33.3924 3.88135 33.8795C3.88693 34.3987 4.23862 34.9627 4.69637 35.1806C4.92525 35.2896 5.37184 35.296 5.53931 35.187C5.60071 35.1422 5.94682 34.7512 6.30409 34.309C6.77859 33.7257 6.96839 33.4373 7.01305 33.2578C7.17493 32.5849 6.79534 31.8414 6.16453 31.585C5.90216 31.476 5.77935 31.476 5.51139 31.5594Z" fill="#047BD5"/>
<path d="M6.91235 34.741C6.53833 35.1961 6.19223 35.6512 6.14198 35.7665C5.73447 36.7343 6.72255 37.997 7.5934 37.6188C7.90601 37.4778 9.0783 36.0614 9.18437 35.696C9.41882 34.8756 8.7322 33.9271 7.90601 33.9271H7.5934L6.91235 34.741Z" fill="#047BD5"/>
<path d="M8.88339 37.3977C8.28608 38.122 8.28608 38.122 8.30841 38.404C8.35865 38.9808 8.87781 39.5 9.40255 39.5C9.65375 39.5 9.67608 39.4808 10.1171 38.9616C10.4632 38.5514 10.586 38.3591 10.6139 38.1861C10.7144 37.5708 10.279 36.9427 9.59793 36.7184C9.49745 36.6863 9.37464 36.8017 8.88339 37.3977Z" fill="#047BD5"/>
<path d="M33.133 19.1241C32.625 19.4125 32.117 20.0919 30.0348 23.2517C28.6838 25.3091 28.6671 25.95 29.9175 27.1293C30.3976 27.578 30.5037 27.6485 30.5595 27.578C30.5986 27.5267 31.7206 25.8667 33.0437 23.8798C35.0477 20.8803 35.4441 20.2522 35.3883 20.1752C35.2487 19.983 34.4113 19.2908 34.1378 19.1498C33.7917 18.9639 33.4288 18.9511 33.133 19.1241Z" fill="#047BD5"/>
<path d="M49.1942 19.1112C48.848 19.2715 47.8321 20.1431 47.8656 20.2521C47.9158 20.3995 52.672 27.6484 52.7222 27.6484C52.8059 27.6484 53.7382 26.764 53.8833 26.546C54.1569 26.1294 54.2183 25.9243 54.1959 25.5013C54.1624 24.8796 53.8945 24.3605 52.5826 22.3287C50.6902 19.3997 50.3944 19.0536 49.7524 19.0151C49.5403 19.0023 49.3505 19.0343 49.1942 19.1112Z" fill="#047BD5"/>
<path d="M39.0769 20.5641C38.4182 20.6539 37.4525 20.7372 36.9389 20.75L35.9955 20.7821L33.5225 24.4802L31.0439 28.1784L31.2728 28.4796L31.5017 28.7873L31.7138 28.6078C32.3781 28.0566 33.422 28.2361 34.0193 28.9988C34.3543 29.4282 34.5162 29.8384 34.5441 30.3127L34.5664 30.7101L34.9683 30.7357C35.2754 30.7614 35.4428 30.8126 35.6661 30.9472C36.2634 31.3254 36.7324 32.133 36.7324 32.7995V33.0751L37.0952 33.1136C37.7818 33.1905 38.4126 33.7032 38.7308 34.4403C38.8592 34.748 38.8816 34.8697 38.8816 35.3825C38.8816 35.8247 38.8983 35.9785 38.9541 35.9785C39.1049 35.9785 39.5626 36.299 39.7859 36.5682C40.2995 37.1771 40.4502 38.0231 40.1711 38.7153L40.0371 39.0422L40.5004 39.4652C40.7517 39.6959 41.0308 39.9139 41.1201 39.9523C41.656 40.1895 42.3705 39.5037 42.3705 38.7474C42.3705 38.4846 42.3594 38.4718 41.7732 37.927C41.4383 37.6257 41.148 37.3309 41.1257 37.2796C41.0475 37.1322 41.1313 36.8887 41.2876 36.7669C41.4774 36.6259 41.522 36.6579 42.4096 37.4719C42.7725 37.8052 43.1465 38.1 43.2358 38.1192C43.4535 38.1705 43.8834 38.0231 44.1346 37.8052C44.5421 37.4527 44.7375 36.5874 44.5197 36.1067C44.4751 36.0042 44.1178 35.626 43.7326 35.2671C42.9623 34.5557 42.8618 34.4083 43.0013 34.1583C43.1297 33.9404 43.2916 33.8955 43.4758 34.0301C43.5596 34.0942 44.0062 34.4916 44.4639 34.9146C44.9273 35.3376 45.3738 35.7222 45.4576 35.7734C45.6976 35.9144 46.1665 35.8439 46.4401 35.6388C46.775 35.3825 47.0039 34.889 47.0039 34.4211C47.0039 34.216 46.9648 33.966 46.9202 33.8635C46.8699 33.7545 46.3954 33.2674 45.8539 32.7675C45.318 32.274 44.8491 31.7997 44.8156 31.7163C44.6984 31.4151 45.0222 31.0818 45.2789 31.2421C45.3515 31.2805 46.0214 31.883 46.7694 32.5688L48.1371 33.825H48.4218C48.8851 33.825 49.315 33.4981 49.5439 32.9662C49.6778 32.6713 49.6778 32.1009 49.555 31.8253C49.421 31.5433 43.4703 26.0762 43.0125 25.8134C42.7166 25.6467 42.6217 25.6275 42.2031 25.6339C41.9407 25.6403 41.282 25.7236 40.7405 25.8134C39.2891 26.0569 38.7643 26.0249 38.1 25.6595C37.7204 25.448 37.2627 24.9353 37.0896 24.5251C36.8105 23.8778 36.9166 23.083 37.3241 22.7177C37.5027 22.551 37.8879 22.4228 38.4796 22.3267C38.7811 22.2754 39.4342 22.0319 40.6456 21.5191C41.5946 21.1153 42.4264 20.7885 42.4822 20.7885C42.6887 20.7885 42.5938 20.6667 42.3035 20.5641C41.8067 20.3847 40.5004 20.3847 39.0769 20.5641Z" fill="#047BD5"/>
<path d="M46.7984 20.8868C46.335 21.0919 45.6875 21.2137 44.3533 21.3355C43.7392 21.3932 43.0582 21.4829 42.8461 21.5342C42.6283 21.579 41.7017 21.9444 40.7806 22.3353C39.4855 22.8801 38.9831 23.066 38.5756 23.1365C38.2853 23.1878 37.9615 23.2711 37.8666 23.3224C37.5149 23.5018 37.5484 24.0338 37.9392 24.5081C38.3578 25.0208 39.0333 25.258 39.759 25.149C39.9544 25.1234 40.602 25.0208 41.1993 24.9247C42.1036 24.7837 42.3436 24.7709 42.6228 24.8221C43.2759 24.9503 43.622 25.2259 46.5527 27.9178C48.0879 29.3215 49.3662 30.4688 49.4053 30.4688C49.5337 30.4688 50.5888 29.8278 51.0019 29.4945C51.5266 29.0843 52.2132 28.3088 52.1518 28.1999C51.9732 27.8473 47.2505 20.7266 47.2059 20.733C47.1724 20.733 46.9882 20.8035 46.7984 20.8868Z" fill="#047BD5"/>
<path d="M32.2908 29.1121C32.1401 29.189 30.9287 30.6696 30.8059 30.9324C30.605 31.3426 30.7166 31.9643 31.0571 32.3745C31.3307 32.7078 31.5986 32.8359 32.0005 32.8359H32.3522L33.0054 32.0476C33.6697 31.2528 33.8874 30.8875 33.8874 30.567C33.8874 30.0607 33.5692 29.4839 33.1505 29.2403C32.8993 29.0929 32.4639 29.0288 32.2908 29.1121Z" fill="#047BD5"/>
<path d="M34.5114 31.5594C34.3942 31.5978 34.1653 31.8157 33.8638 32.1811C32.9316 33.3027 32.8813 33.3924 32.8813 33.8795C32.8869 34.3987 33.2386 34.9627 33.6964 35.1806C33.9252 35.2896 34.3718 35.296 34.5393 35.187C34.6007 35.1422 34.9468 34.7512 35.3041 34.309C35.7786 33.7257 35.9684 33.4373 36.013 33.2578C36.1749 32.5849 35.7953 31.8414 35.1645 31.585C34.9022 31.476 34.7793 31.476 34.5114 31.5594Z" fill="#047BD5"/>
<path d="M35.9123 34.741C35.5383 35.1961 35.1922 35.6512 35.142 35.7665C34.7345 36.7343 35.7225 37.997 36.5934 37.6188C36.906 37.4778 38.0783 36.0614 38.1844 35.696C38.4188 34.8756 37.7322 33.9271 36.906 33.9271H36.5934L35.9123 34.741Z" fill="#047BD5"/>
<path d="M37.8834 37.3977C37.2861 38.122 37.2861 38.122 37.3084 38.404C37.3586 38.9808 37.8778 39.5 38.4025 39.5C38.6538 39.5 38.6761 39.4808 39.1171 38.9616C39.4632 38.5514 39.586 38.3591 39.6139 38.1861C39.7144 37.5708 39.279 36.9427 38.5979 36.7184C38.4974 36.6863 38.3746 36.8017 37.8834 37.3977Z" fill="#047BD5"/>
<path d="M32.0504 6.39085L30.9488 7.94989L30.6922 7.79722C29.4854 7.08343 27.974 6.65765 26.494 6.61346C24.8654 6.56857 23.3364 6.93372 21.9147 7.71432C21.0731 8.17389 20.5028 8.60122 19.8765 9.23428C19.3596 9.76019 19.0614 10.1484 17.9985 11.6848L17.0093 13.1159L18.2235 12.3585C19.5595 11.5255 19.9019 11.3366 20.4889 11.1045C21.4416 10.7265 22.3711 10.535 23.4075 10.5023C25.0592 10.4486 26.7252 10.883 28.1558 11.7418L28.269 11.8096L27.1859 13.3586C26.5895 14.2114 26.1104 14.913 26.1181 14.9184C26.1259 14.9237 27.6239 14.8162 29.4497 14.6776C31.2754 14.539 33.446 14.3777 34.2744 14.3144C35.0984 14.2518 35.7814 14.194 35.7886 14.1837C35.7958 14.1734 35.6705 13.7071 35.5126 13.1454C35.3502 12.5843 34.7632 10.5139 34.2034 8.54658C33.6419 6.58188 33.1757 4.94017 33.1688 4.90089C33.1503 4.83439 33.0938 4.90966 32.0504 6.39085Z" fill="#047BD5"/>
<path d="M24.2416 49.8982L25.3432 48.3392L25.5998 48.4918C26.8066 49.2056 28.318 49.6314 29.798 49.6756C31.4266 49.7205 32.9556 49.3553 34.3773 48.5747C35.2189 48.1152 35.7892 47.6878 36.4155 47.0548C36.9324 46.5289 37.2306 46.1407 38.2935 44.6043L39.2827 43.1732L38.0685 43.9306C36.7325 44.7635 36.39 44.9524 35.8031 45.1846C34.8504 45.5626 33.9209 45.7541 32.8845 45.7867C31.2328 45.8404 29.5668 45.406 28.1362 44.5472L28.023 44.4795L29.1061 42.9305C29.7025 42.0776 30.1816 41.3761 30.1738 41.3707C30.1661 41.3653 28.6681 41.4729 26.8423 41.6115C25.0166 41.75 22.846 41.9113 22.0176 41.9747C21.1936 42.0372 20.5105 42.0951 20.5034 42.1054C20.4962 42.1156 20.6215 42.5819 20.7794 43.1437C20.9417 43.7047 21.5288 45.7752 22.0886 47.7425C22.6501 49.7072 23.1163 51.3489 23.1232 51.3882C23.1417 51.4547 23.1982 51.3794 24.2416 49.8982Z" fill="#047BD5"/>
</svg>
