<svg width="42" height="35" viewBox="0 0 42 35" fill="none" xmlns="http://www.w3.org/2000/svg">
<path d="M6.88828 0.206903C6.04163 0.687599 5.19497 1.81991 1.72462 7.08621C-0.526917 10.5152 -0.554829 11.5834 1.52924 13.5489C2.32938 14.2967 2.50615 14.4142 2.59919 14.2967C2.66432 14.2112 4.5344 11.4445 6.73942 8.13306C10.0795 3.13381 10.7401 2.08696 10.6471 1.95877C10.4145 1.63831 9.01887 0.484638 8.56298 0.249631C7.98614 -0.0601511 7.38139 -0.0815153 6.88828 0.206903Z" fill="#047BD5"/>
<path d="M33.6566 0.185439C33.0798 0.452493 31.3864 1.90526 31.4423 2.08686C31.526 2.33255 39.4529 14.4141 39.5366 14.4141C39.6762 14.4141 41.23 12.9399 41.4719 12.5767C41.9277 11.8824 42.0301 11.5406 41.9929 10.8355C41.9371 9.79937 41.4905 8.93412 39.3041 5.54788C36.15 0.666136 35.6569 0.0892992 34.587 0.0252066C34.2334 0.00384235 33.9171 0.0572529 33.6566 0.185439Z" fill="#047BD5"/>
<path d="M16.795 2.60701C15.6972 2.75657 14.0876 2.89543 13.2316 2.9168L11.6593 2.97021L7.53766 9.13381L3.40674 15.2974L3.7882 15.7995L4.16966 16.3122L4.5232 16.0131C5.63037 15.0944 7.37019 15.3935 8.36571 16.6647C8.92394 17.3804 9.19376 18.0641 9.24028 18.8546L9.27749 19.5169L9.94737 19.5596C10.4591 19.6023 10.7382 19.6878 11.1104 19.9121C12.1059 20.5423 12.8874 21.8883 12.8874 22.9992V23.4586L13.4922 23.5227C14.6365 23.6508 15.6879 24.5054 16.2182 25.7339C16.4322 26.2466 16.4694 26.4496 16.4694 27.3041C16.4694 28.0412 16.4973 28.2976 16.5903 28.2976C16.8416 28.2976 17.6045 28.8317 17.9766 29.2803C18.8326 30.2951 19.0838 31.7052 18.6186 32.8589L18.3953 33.4037L19.1675 34.1087C19.5862 34.4932 20.0514 34.8564 20.2003 34.9205C21.0934 35.3158 22.2843 34.1728 22.2843 32.9123C22.2843 32.4743 22.2657 32.4529 21.2888 31.545C20.7306 31.0429 20.2468 30.5515 20.2096 30.4661C20.0793 30.2204 20.2189 29.8144 20.4794 29.6115C20.7957 29.3765 20.8701 29.4299 22.3495 30.7865C22.9542 31.342 23.5776 31.8334 23.7264 31.8654C24.0893 31.9509 24.8057 31.7052 25.2244 31.342C25.9035 30.7545 26.2292 29.3124 25.8663 28.5112C25.7919 28.3403 25.1964 27.7101 24.5545 27.1119C23.2705 25.9261 23.1031 25.6805 23.3357 25.2639C23.5497 24.9007 23.8195 24.8259 24.1265 25.0502C24.2661 25.157 25.0104 25.8193 25.7733 26.5243C26.5455 27.2294 27.2898 27.8703 27.4294 27.9558C27.8294 28.1908 28.611 28.0733 29.0669 27.7314C29.6251 27.3041 30.0066 26.4816 30.0066 25.7018C30.0066 25.36 29.9414 24.9434 29.867 24.7725C29.7833 24.5909 28.9924 23.779 28.09 22.9458C27.1968 22.1233 26.4153 21.3328 26.3594 21.194C26.164 20.6919 26.7037 20.1364 27.1317 20.4035C27.2526 20.4676 28.3691 21.4717 29.6158 22.6147L31.8952 24.7084H32.3697C33.142 24.7084 33.8584 24.1636 34.2398 23.277C34.4631 22.7856 34.4631 21.8349 34.2584 21.3756C34.0351 20.9055 24.1172 11.7937 23.3543 11.3557C22.8612 11.078 22.703 11.0459 22.0052 11.0566C21.5679 11.0673 20.4701 11.2061 19.5676 11.3557C17.1486 11.7616 16.274 11.7082 15.1669 11.0993C14.5342 10.7468 13.7713 9.89224 13.4828 9.20858C13.0177 8.12969 13.1944 6.8051 13.8736 6.19622C14.1713 5.91848 14.8133 5.70484 15.7995 5.54461C16.3019 5.45915 17.3905 5.05323 19.4094 4.19865C20.9911 3.52568 22.3774 2.98089 22.4704 2.98089C22.8146 2.98089 22.6565 2.77793 22.1727 2.60701C21.3446 2.30791 19.1675 2.30791 16.795 2.60701Z" fill="#047BD5"/>
<path d="M29.6637 3.13956C28.8915 3.48139 27.8123 3.68435 25.5886 3.88731C24.5652 3.98345 23.4301 4.133 23.0766 4.21846C22.7137 4.29323 21.1693 4.90212 19.6341 5.55373C17.4756 6.46171 16.6383 6.77149 15.9591 6.889C15.4753 6.97445 14.9357 7.11332 14.7775 7.19878C14.1914 7.49788 14.2472 8.3845 14.8985 9.17498C15.5962 10.0295 16.722 10.4248 17.9315 10.2432C18.2572 10.2005 19.3364 10.0295 20.3319 9.86932C21.8392 9.63431 22.2392 9.61294 22.7044 9.6984C23.793 9.91204 24.3698 10.3714 29.2544 14.8579C31.8129 17.1973 33.9435 19.1094 34.0086 19.1094C34.2226 19.1094 35.9811 18.0412 36.6696 17.4857C37.5441 16.802 38.6885 15.5095 38.5862 15.3279C38.2884 14.7404 30.4173 2.87251 30.3429 2.88319C30.2871 2.88319 29.9801 3.00069 29.6637 3.13956Z" fill="#047BD5"/>
<path d="M5.48504 16.8562C5.23383 16.9844 3.21489 19.4519 3.0102 19.8899C2.67526 20.5736 2.86134 21.6097 3.42888 22.2934C3.88477 22.8489 4.33135 23.0625 5.00123 23.0625H5.58738L6.67593 21.7486C7.7831 20.424 8.14595 19.8151 8.14595 19.281C8.14595 18.4371 7.61563 17.4757 6.91784 17.0698C6.49916 16.8241 5.77346 16.7173 5.48504 16.8562Z" fill="#047BD5"/>
<path d="M9.18597 20.9401C8.99059 21.0042 8.60913 21.3674 8.10672 21.9763C6.55297 23.8457 6.46924 23.9952 6.46924 24.8071C6.47854 25.6723 7.06469 26.6123 7.82761 26.9755C8.20907 27.1571 8.95338 27.1678 9.23249 26.9862C9.33484 26.9114 9.91168 26.2598 10.5071 25.5228C11.298 24.5507 11.6143 24.07 11.6887 23.7709C11.9585 22.6493 11.3259 21.4101 10.2745 20.9828C9.83725 20.8012 9.63256 20.8012 9.18597 20.9401Z" fill="#047BD5"/>
<path d="M11.5203 26.2377C10.8969 26.9961 10.32 27.7546 10.2363 27.9468C9.55713 29.5598 11.2039 31.6642 12.6553 31.034C13.1763 30.799 15.1302 28.4382 15.3069 27.8293C15.6977 26.462 14.5533 24.8811 13.1763 24.8811H12.6553L11.5203 26.2377Z" fill="#047BD5"/>
<path d="M14.8053 30.6681C13.8098 31.8752 13.8098 31.8752 13.847 32.3452C13.9308 33.3066 14.796 34.1719 15.6706 34.1719C16.0893 34.1719 16.1265 34.1398 16.8615 33.2746C17.4383 32.5909 17.643 32.2705 17.6895 31.982C17.857 30.9565 17.1313 29.9097 15.9962 29.5358C15.8287 29.4824 15.6241 29.6747 14.8053 30.6681Z" fill="#047BD5"/>
</svg>
