<svg width="55" height="57" viewBox="0 0 55 57" fill="none" xmlns="http://www.w3.org/2000/svg">
<path d="M4.13298 19.122C3.62499 19.4105 3.11699 20.0898 1.03478 23.2496C-0.316151 25.307 -0.332898 25.948 0.917548 27.1273C1.39763 27.5759 1.5037 27.6464 1.55952 27.5759C1.5986 27.5246 2.72065 25.8646 4.04366 23.8777C6.04773 20.8782 6.44408 20.2501 6.38825 20.1732C6.24869 19.9809 5.41134 19.2887 5.13781 19.1477C4.7917 18.9618 4.42885 18.949 4.13298 19.122Z" fill="white"/>
<path d="M20.1942 19.1092C19.848 19.2694 18.8321 20.1411 18.8656 20.25C18.9158 20.3974 23.672 27.6464 23.7222 27.6464C23.8059 27.6464 24.7382 26.7619 24.8833 26.544C25.1569 26.1274 25.2183 25.9223 25.1959 25.4992C25.1624 24.8775 24.8945 24.3584 23.5826 22.3266C21.6902 19.3976 21.3944 19.0515 20.7524 19.013C20.5403 19.0002 20.3505 19.0322 20.1942 19.1092Z" fill="white"/>
<path d="M10.0769 20.5641C9.41823 20.6539 8.45248 20.7372 7.93891 20.75L6.99549 20.7821L4.52251 24.4802L2.04395 28.1784L2.27282 28.4796L2.5017 28.7873L2.71383 28.6078C3.37813 28.0566 4.42203 28.2361 5.01934 28.9988C5.35428 29.4282 5.51617 29.8384 5.54408 30.3127L5.56641 30.7101L5.96834 30.7357C6.27537 30.7614 6.44284 30.8126 6.66613 30.9472C7.26344 31.3254 7.73236 32.133 7.73236 32.7995V33.0751L8.09521 33.1136C8.78184 33.1905 9.41265 33.7032 9.73084 34.4403C9.85924 34.748 9.88157 34.8697 9.88157 35.3825C9.88157 35.8247 9.89831 35.9785 9.95414 35.9785C10.1049 35.9785 10.5626 36.299 10.7859 36.5682C11.2995 37.1771 11.4502 38.0231 11.1711 38.7153L11.0371 39.0422L11.5004 39.4652C11.7517 39.6959 12.0308 39.9139 12.1201 39.9523C12.656 40.1895 13.3705 39.5037 13.3705 38.7474C13.3705 38.4846 13.3594 38.4718 12.7732 37.927C12.4383 37.6257 12.148 37.3309 12.1257 37.2796C12.0475 37.1322 12.1313 36.8887 12.2876 36.7669C12.4774 36.6259 12.522 36.6579 13.4096 37.4719C13.7725 37.8052 14.1465 38.1 14.2358 38.1192C14.4535 38.1705 14.8834 38.0231 15.1346 37.8052C15.5421 37.4527 15.7375 36.5874 15.5197 36.1067C15.4751 36.0042 15.1178 35.626 14.7326 35.2671C13.9623 34.5557 13.8618 34.4083 14.0013 34.1583C14.1297 33.9404 14.2916 33.8955 14.4758 34.0301C14.5596 34.0942 15.0062 34.4916 15.4639 34.9146C15.9273 35.3376 16.3738 35.7222 16.4576 35.7734C16.6976 35.9144 17.1665 35.8439 17.4401 35.6388C17.775 35.3825 18.0039 34.889 18.0039 34.4211C18.0039 34.216 17.9648 33.966 17.9202 33.8635C17.8699 33.7545 17.3954 33.2674 16.8539 32.7675C16.318 32.274 15.8491 31.7997 15.8156 31.7163C15.6984 31.4151 16.0222 31.0818 16.2789 31.2421C16.3515 31.2805 17.0214 31.883 17.7694 32.5688L19.1371 33.825H19.4218C19.8851 33.825 20.315 33.4981 20.5439 32.9662C20.6778 32.6713 20.6778 32.1009 20.555 31.8253C20.421 31.5433 14.4703 26.0762 14.0125 25.8134C13.7166 25.6467 13.6217 25.6275 13.2031 25.6339C12.9407 25.6403 12.282 25.7236 11.7405 25.8134C10.2891 26.0569 9.76434 26.0249 9.10004 25.6595C8.72044 25.448 8.26268 24.9353 8.08963 24.5251C7.81051 23.8778 7.91658 23.083 8.32409 22.7177C8.50273 22.551 8.88791 22.4228 9.47964 22.3267C9.78108 22.2754 10.4342 22.0319 11.6456 21.5191C12.5946 21.1153 13.4264 20.7885 13.4822 20.7885C13.6887 20.7885 13.5938 20.6667 13.3035 20.5641C12.8067 20.3847 11.5004 20.3847 10.0769 20.5641Z" fill="white"/>
<path d="M17.7984 20.8845C17.335 21.0896 16.6875 21.2114 15.3533 21.3332C14.7392 21.3908 14.0582 21.4806 13.8461 21.5319C13.6283 21.5767 12.7017 21.942 11.7806 22.333C10.4855 22.8778 9.98307 23.0637 9.57556 23.1342C9.28528 23.1855 8.9615 23.2688 8.8666 23.3201C8.51491 23.4995 8.54841 24.0315 8.93917 24.5058C9.35785 25.0185 10.0333 25.2557 10.759 25.1467C10.9544 25.1211 11.602 25.0185 12.1993 24.9224C13.1036 24.7814 13.3436 24.7686 13.6228 24.8198C14.2759 24.948 14.622 25.2236 17.5527 27.9155C19.0879 29.3192 20.3662 30.4664 20.4053 30.4664C20.5337 30.4664 21.5888 29.8255 22.0019 29.4922C22.5266 29.082 23.2132 28.3065 23.1518 28.1975C22.9732 27.845 18.2505 20.7243 18.2059 20.7307C18.1724 20.7307 17.9882 20.8012 17.7984 20.8845Z" fill="white"/>
<path d="M3.29083 29.114C3.14011 29.1909 1.92874 30.6714 1.80593 30.9342C1.60496 31.3444 1.71661 31.9661 2.05713 32.3763C2.33067 32.7096 2.59862 32.8378 3.00055 32.8378H3.35224L4.00537 32.0494C4.66967 31.2547 4.88738 30.8893 4.88738 30.5689C4.88738 30.0625 4.56919 29.4857 4.15051 29.2421C3.89931 29.0947 3.46388 29.0306 3.29083 29.114Z" fill="white"/>
<path d="M5.51139 31.5625C5.39416 31.601 5.16529 31.8189 4.86384 32.1842C3.93159 33.3059 3.88135 33.3956 3.88135 33.8827C3.88693 34.4019 4.23862 34.9659 4.69637 35.1838C4.92525 35.2928 5.37184 35.2992 5.53931 35.1902C5.60071 35.1453 5.94682 34.7544 6.30409 34.3121C6.77859 33.7289 6.96839 33.4405 7.01305 33.261C7.17493 32.588 6.79534 31.8446 6.16453 31.5882C5.90216 31.4792 5.77935 31.4792 5.51139 31.5625Z" fill="white"/>
<path d="M6.91235 34.7414C6.53833 35.1965 6.19223 35.6515 6.14198 35.7669C5.73447 36.7347 6.72255 37.9973 7.5934 37.6192C7.90601 37.4782 9.0783 36.0617 9.18437 35.6964C9.41882 34.876 8.7322 33.9274 7.90601 33.9274H7.5934L6.91235 34.7414Z" fill="white"/>
<path d="M8.88339 37.4014C8.28608 38.1257 8.28608 38.1257 8.30841 38.4077C8.35865 38.9845 8.87781 39.5037 9.40255 39.5037C9.65375 39.5037 9.67608 39.4844 10.1171 38.9653C10.4632 38.5551 10.586 38.3628 10.6139 38.1898C10.7144 37.5745 10.279 36.9463 9.59793 36.722C9.49745 36.69 9.37464 36.8053 8.88339 37.4014Z" fill="white"/>
<path d="M33.133 19.122C32.625 19.4105 32.117 20.0898 30.0348 23.2496C28.6838 25.307 28.6671 25.948 29.9175 27.1273C30.3976 27.5759 30.5037 27.6464 30.5595 27.5759C30.5986 27.5246 31.7206 25.8646 33.0437 23.8777C35.0477 20.8782 35.4441 20.2501 35.3883 20.1732C35.2487 19.9809 34.4113 19.2887 34.1378 19.1477C33.7917 18.9618 33.4288 18.949 33.133 19.122Z" fill="white"/>
<path d="M49.1942 19.1092C48.848 19.2694 47.8321 20.1411 47.8656 20.25C47.9158 20.3974 52.672 27.6464 52.7222 27.6464C52.8059 27.6464 53.7382 26.7619 53.8833 26.544C54.1569 26.1274 54.2183 25.9223 54.1959 25.4992C54.1624 24.8775 53.8945 24.3584 52.5826 22.3266C50.6902 19.3976 50.3944 19.0515 49.7524 19.013C49.5403 19.0002 49.3505 19.0322 49.1942 19.1092Z" fill="white"/>
<path d="M39.0769 20.5641C38.4182 20.6539 37.4525 20.7372 36.9389 20.75L35.9955 20.7821L33.5225 24.4802L31.0439 28.1784L31.2728 28.4796L31.5017 28.7873L31.7138 28.6078C32.3781 28.0566 33.422 28.2361 34.0193 28.9988C34.3543 29.4282 34.5162 29.8384 34.5441 30.3127L34.5664 30.7101L34.9683 30.7357C35.2754 30.7614 35.4428 30.8126 35.6661 30.9472C36.2634 31.3254 36.7324 32.133 36.7324 32.7995V33.0751L37.0952 33.1136C37.7818 33.1905 38.4126 33.7032 38.7308 34.4403C38.8592 34.748 38.8816 34.8697 38.8816 35.3825C38.8816 35.8247 38.8983 35.9785 38.9541 35.9785C39.1049 35.9785 39.5626 36.299 39.7859 36.5682C40.2995 37.1771 40.4502 38.0231 40.1711 38.7153L40.0371 39.0422L40.5004 39.4652C40.7517 39.6959 41.0308 39.9139 41.1201 39.9523C41.656 40.1895 42.3705 39.5037 42.3705 38.7474C42.3705 38.4846 42.3594 38.4718 41.7732 37.927C41.4383 37.6257 41.148 37.3309 41.1257 37.2796C41.0475 37.1322 41.1313 36.8887 41.2876 36.7669C41.4774 36.6259 41.522 36.6579 42.4096 37.4719C42.7725 37.8052 43.1465 38.1 43.2358 38.1192C43.4535 38.1705 43.8834 38.0231 44.1346 37.8052C44.5421 37.4527 44.7375 36.5874 44.5197 36.1067C44.4751 36.0042 44.1178 35.626 43.7326 35.2671C42.9623 34.5557 42.8618 34.4083 43.0013 34.1583C43.1297 33.9404 43.2916 33.8955 43.4758 34.0301C43.5596 34.0942 44.0062 34.4916 44.4639 34.9146C44.9273 35.3376 45.3738 35.7222 45.4576 35.7734C45.6976 35.9144 46.1665 35.8439 46.4401 35.6388C46.775 35.3825 47.0039 34.889 47.0039 34.4211C47.0039 34.216 46.9648 33.966 46.9202 33.8635C46.8699 33.7545 46.3954 33.2674 45.8539 32.7675C45.318 32.274 44.8491 31.7997 44.8156 31.7163C44.6984 31.4151 45.0222 31.0818 45.2789 31.2421C45.3515 31.2805 46.0214 31.883 46.7694 32.5688L48.1371 33.825H48.4218C48.8851 33.825 49.315 33.4981 49.5439 32.9662C49.6778 32.6713 49.6778 32.1009 49.555 31.8253C49.421 31.5433 43.4703 26.0762 43.0125 25.8134C42.7166 25.6467 42.6217 25.6275 42.2031 25.6339C41.9407 25.6403 41.282 25.7236 40.7405 25.8134C39.2891 26.0569 38.7643 26.0249 38.1 25.6595C37.7204 25.448 37.2627 24.9353 37.0896 24.5251C36.8105 23.8778 36.9166 23.083 37.3241 22.7177C37.5027 22.551 37.8879 22.4228 38.4796 22.3267C38.7811 22.2754 39.4342 22.0319 40.6456 21.5191C41.5946 21.1153 42.4264 20.7885 42.4822 20.7885C42.6887 20.7885 42.5938 20.6667 42.3035 20.5641C41.8067 20.3847 40.5004 20.3847 39.0769 20.5641Z" fill="white"/>
<path d="M46.7984 20.8845C46.335 21.0896 45.6875 21.2114 44.3533 21.3332C43.7392 21.3908 43.0582 21.4806 42.8461 21.5319C42.6283 21.5767 41.7017 21.942 40.7806 22.333C39.4855 22.8778 38.9831 23.0637 38.5756 23.1342C38.2853 23.1855 37.9615 23.2688 37.8666 23.3201C37.5149 23.4995 37.5484 24.0315 37.9392 24.5058C38.3578 25.0185 39.0333 25.2557 39.759 25.1467C39.9544 25.1211 40.602 25.0185 41.1993 24.9224C42.1036 24.7814 42.3436 24.7686 42.6228 24.8198C43.2759 24.948 43.622 25.2236 46.5527 27.9155C48.0879 29.3192 49.3662 30.4664 49.4053 30.4664C49.5337 30.4664 50.5888 29.8255 51.0019 29.4922C51.5266 29.082 52.2132 28.3065 52.1518 28.1975C51.9732 27.845 47.2505 20.7243 47.2059 20.7307C47.1724 20.7307 46.9882 20.8012 46.7984 20.8845Z" fill="white"/>
<path d="M32.2908 29.114C32.1401 29.1909 30.9287 30.6714 30.8059 30.9342C30.605 31.3444 30.7166 31.9661 31.0571 32.3763C31.3307 32.7096 31.5986 32.8378 32.0005 32.8378H32.3522L33.0054 32.0494C33.6697 31.2547 33.8874 30.8893 33.8874 30.5689C33.8874 30.0625 33.5692 29.4857 33.1505 29.2421C32.8993 29.0947 32.4639 29.0306 32.2908 29.114Z" fill="white"/>
<path d="M34.5114 31.5625C34.3942 31.601 34.1653 31.8189 33.8638 32.1842C32.9316 33.3059 32.8813 33.3956 32.8813 33.8827C32.8869 34.4019 33.2386 34.9659 33.6964 35.1838C33.9252 35.2928 34.3718 35.2992 34.5393 35.1902C34.6007 35.1453 34.9468 34.7544 35.3041 34.3121C35.7786 33.7289 35.9684 33.4405 36.013 33.261C36.1749 32.588 35.7953 31.8446 35.1645 31.5882C34.9022 31.4792 34.7793 31.4792 34.5114 31.5625Z" fill="white"/>
<path d="M35.9123 34.7414C35.5383 35.1965 35.1922 35.6515 35.142 35.7669C34.7345 36.7347 35.7225 37.9973 36.5934 37.6192C36.906 37.4782 38.0783 36.0617 38.1844 35.6964C38.4188 34.876 37.7322 33.9274 36.906 33.9274H36.5934L35.9123 34.7414Z" fill="white"/>
<path d="M37.8834 37.4014C37.2861 38.1257 37.2861 38.1257 37.3084 38.4077C37.3586 38.9845 37.8778 39.5037 38.4025 39.5037C38.6538 39.5037 38.6761 39.4844 39.1171 38.9653C39.4632 38.5551 39.586 38.3628 39.6139 38.1898C39.7144 37.5745 39.279 36.9463 38.5979 36.722C38.4974 36.69 38.3746 36.8053 37.8834 37.4014Z" fill="white"/>
<path d="M32.0504 6.39378L30.9488 7.95282L30.6922 7.80015C29.4854 7.08636 27.974 6.66058 26.494 6.61639C24.8654 6.57149 23.3364 6.93665 21.9147 7.71725C21.0731 8.17682 20.5028 8.60415 19.8765 9.23721C19.3596 9.76312 19.0614 10.1513 17.9985 11.6877L17.0093 13.1188L18.2235 12.3614C19.5595 11.5285 19.9019 11.3396 20.4889 11.1074C21.4416 10.7294 22.3711 10.5379 23.4075 10.5053C25.0592 10.4515 26.7252 10.886 28.1558 11.7447L28.269 11.8125L27.1859 13.3615C26.5895 14.2143 26.1104 14.9159 26.1181 14.9213C26.1259 14.9267 27.6239 14.8191 29.4497 14.6805C31.2754 14.542 33.446 14.3806 34.2744 14.3173C35.0984 14.2548 35.7814 14.1969 35.7886 14.1866C35.7958 14.1763 35.6705 13.7101 35.5126 13.1483C35.3502 12.5873 34.7632 10.5168 34.2034 8.54951C33.6419 6.58481 33.1757 4.9431 33.1688 4.90382C33.1503 4.83732 33.0938 4.91259 32.0504 6.39378Z" fill="#FEFEFE"/>
<path d="M24.2416 49.8948L25.3432 48.3358L25.5998 48.4884C26.8066 49.2022 28.318 49.628 29.798 49.6722C31.4266 49.7171 32.9556 49.3519 34.3773 48.5713C35.2189 48.1118 35.7892 47.6844 36.4155 47.0514C36.9324 46.5255 37.2306 46.1373 38.2935 44.6009L39.2827 43.1698L38.0685 43.9272C36.7325 44.7601 36.39 44.949 35.8031 45.1812C34.8504 45.5592 33.9209 45.7507 32.8845 45.7833C31.2328 45.837 29.5668 45.4026 28.1362 44.5438L28.023 44.4761L29.1061 42.9271C29.7025 42.0742 30.1816 41.3727 30.1738 41.3673C30.1661 41.3619 28.6681 41.4695 26.8423 41.608C25.0166 41.7466 22.846 41.9079 22.0176 41.9713C21.1936 42.0338 20.5105 42.0917 20.5034 42.102C20.4962 42.1122 20.6215 42.5785 20.7794 43.1403C20.9417 43.7013 21.5288 45.7718 22.0886 47.7391C22.6501 49.7038 23.1163 51.3455 23.1232 51.3848C23.1417 51.4513 23.1982 51.376 24.2416 49.8948Z" fill="#FEFEFE"/>
</svg>
