<svg width="42" height="35" viewBox="0 0 42 35" fill="none" xmlns="http://www.w3.org/2000/svg">
<path d="M6.88828 0.203607C6.04163 0.684303 5.19497 1.81661 1.72462 7.08291C-0.526917 10.5119 -0.554829 11.5801 1.52924 13.5456C2.32938 14.2934 2.50615 14.4109 2.59919 14.2934C2.66432 14.2079 4.5344 11.4412 6.73942 8.12976C10.0795 3.13052 10.7401 2.08366 10.6471 1.95548C10.4145 1.63501 9.01887 0.481342 8.56298 0.246335C7.98614 -0.063447 7.38139 -0.0848112 6.88828 0.203607Z" fill="white"/>
<path d="M33.6566 0.182143C33.0798 0.449197 31.3864 1.90197 31.4423 2.08357C31.526 2.32926 39.4529 14.4108 39.5366 14.4108C39.6762 14.4108 41.23 12.9366 41.4719 12.5734C41.9277 11.8791 42.0301 11.5373 41.9929 10.8322C41.9371 9.79608 41.4905 8.93082 39.3041 5.54458C36.15 0.66284 35.6569 0.0860033 34.587 0.0219107C34.2334 0.000546455 33.9171 0.053957 33.6566 0.182143Z" fill="white"/>
<path d="M16.795 2.60701C15.6972 2.75657 14.0876 2.89543 13.2316 2.9168L11.6593 2.97021L7.53766 9.13381L3.40674 15.2974L3.7882 15.7995L4.16966 16.3122L4.5232 16.0131C5.63037 15.0944 7.37019 15.3935 8.36571 16.6647C8.92394 17.3804 9.19376 18.0641 9.24028 18.8546L9.27749 19.5169L9.94737 19.5596C10.4591 19.6023 10.7382 19.6878 11.1104 19.9121C12.1059 20.5423 12.8874 21.8883 12.8874 22.9992V23.4586L13.4922 23.5227C14.6365 23.6508 15.6879 24.5054 16.2182 25.7339C16.4322 26.2466 16.4694 26.4496 16.4694 27.3041C16.4694 28.0412 16.4973 28.2976 16.5903 28.2976C16.8416 28.2976 17.6045 28.8317 17.9766 29.2803C18.8326 30.2951 19.0838 31.7052 18.6186 32.8589L18.3953 33.4037L19.1675 34.1087C19.5862 34.4932 20.0514 34.8564 20.2003 34.9205C21.0934 35.3158 22.2843 34.1728 22.2843 32.9123C22.2843 32.4743 22.2657 32.4529 21.2888 31.545C20.7306 31.0429 20.2468 30.5515 20.2096 30.4661C20.0793 30.2204 20.2189 29.8144 20.4794 29.6115C20.7957 29.3765 20.8701 29.4299 22.3495 30.7865C22.9542 31.342 23.5776 31.8334 23.7264 31.8654C24.0893 31.9509 24.8057 31.7052 25.2244 31.342C25.9035 30.7545 26.2292 29.3124 25.8663 28.5112C25.7919 28.3403 25.1964 27.7101 24.5545 27.1119C23.2705 25.9261 23.1031 25.6805 23.3357 25.2639C23.5497 24.9007 23.8195 24.8259 24.1265 25.0502C24.2661 25.157 25.0104 25.8193 25.7733 26.5243C26.5455 27.2294 27.2898 27.8703 27.4294 27.9558C27.8294 28.1908 28.611 28.0733 29.0669 27.7314C29.6251 27.3041 30.0066 26.4816 30.0066 25.7018C30.0066 25.36 29.9414 24.9434 29.867 24.7725C29.7833 24.5909 28.9924 23.779 28.09 22.9458C27.1968 22.1233 26.4153 21.3328 26.3594 21.194C26.164 20.6919 26.7037 20.1364 27.1317 20.4035C27.2526 20.4676 28.3691 21.4717 29.6158 22.6147L31.8952 24.7084H32.3697C33.142 24.7084 33.8584 24.1636 34.2398 23.277C34.4631 22.7856 34.4631 21.8349 34.2584 21.3756C34.0351 20.9055 24.1172 11.7937 23.3543 11.3557C22.8612 11.078 22.703 11.0459 22.0052 11.0566C21.5679 11.0673 20.4701 11.2061 19.5676 11.3557C17.1486 11.7616 16.274 11.7082 15.1669 11.0993C14.5342 10.7468 13.7713 9.89224 13.4828 9.20858C13.0177 8.12969 13.1944 6.8051 13.8736 6.19622C14.1713 5.91848 14.8133 5.70484 15.7995 5.54461C16.3019 5.45915 17.3905 5.05323 19.4094 4.19865C20.9911 3.52568 22.3774 2.98089 22.4704 2.98089C22.8146 2.98089 22.6565 2.77793 22.1727 2.60701C21.3446 2.30791 19.1675 2.30791 16.795 2.60701Z" fill="white"/>
<path d="M29.6637 3.14103C28.8915 3.48286 27.8123 3.68582 25.5886 3.88878C24.5652 3.98492 23.4301 4.13447 23.0766 4.21992C22.7137 4.2947 21.1693 4.90358 19.6341 5.55519C17.4756 6.46318 16.6383 6.77296 15.9591 6.89046C15.4753 6.97592 14.9357 7.11479 14.7775 7.20024C14.1914 7.49934 14.2472 8.38596 14.8985 9.17644C15.5962 10.031 16.722 10.4263 17.9315 10.2447C18.2572 10.2019 19.3364 10.031 20.3319 9.87078C21.8392 9.63577 22.2392 9.61441 22.7044 9.69987C23.793 9.91351 24.3698 10.3728 29.2544 14.8593C31.8129 17.1987 33.9435 19.1108 34.0086 19.1108C34.2226 19.1108 35.9811 18.0426 36.6696 17.4872C37.5441 16.8035 38.6885 15.511 38.5862 15.3294C38.2884 14.7418 30.4173 2.87397 30.3429 2.88465C30.2871 2.88465 29.9801 3.00216 29.6637 3.14103Z" fill="white"/>
<path d="M5.48504 16.8569C5.23383 16.9851 3.21489 19.4527 3.0102 19.8906C2.67526 20.5743 2.86134 21.6105 3.42888 22.2941C3.88477 22.8496 4.33135 23.0632 5.00123 23.0632H5.58738L6.67593 21.7493C7.7831 20.4247 8.14595 19.8159 8.14595 19.2818C8.14595 18.4379 7.61563 17.4765 6.91784 17.0705C6.49916 16.8249 5.77346 16.718 5.48504 16.8569Z" fill="white"/>
<path d="M9.18597 20.9376C8.99059 21.0016 8.60913 21.3648 8.10672 21.9737C6.55297 23.8431 6.46924 23.9926 6.46924 24.8045C6.47854 25.6697 7.06469 26.6098 7.82761 26.973C8.20907 27.1546 8.95338 27.1652 9.23249 26.9836C9.33484 26.9089 9.91168 26.2573 10.5071 25.5202C11.298 24.5481 11.6143 24.0674 11.6887 23.7683C11.9585 22.6467 11.3259 21.4076 10.2745 20.9803C9.83725 20.7987 9.63256 20.7987 9.18597 20.9376Z" fill="white"/>
<path d="M11.5203 26.236C10.8969 26.9944 10.32 27.7528 10.2363 27.9451C9.55713 29.5581 11.2039 31.6625 12.6553 31.0323C13.1763 30.7973 15.1302 28.4365 15.3069 27.8276C15.6977 26.4603 14.5533 24.8793 13.1763 24.8793H12.6553L11.5203 26.236Z" fill="white"/>
<path d="M14.8053 30.669C13.8098 31.8761 13.8098 31.8761 13.847 32.3461C13.9308 33.3075 14.796 34.1727 15.6706 34.1727C16.0893 34.1727 16.1265 34.1407 16.8615 33.2754C17.4383 32.5918 17.643 32.2713 17.6895 31.9829C17.857 30.9574 17.1313 29.9106 15.9962 29.5367C15.8287 29.4833 15.6241 29.6755 14.8053 30.669Z" fill="white"/>
</svg>
