<svg width="33" height="30" viewBox="0 0 33 30" fill="none" xmlns="http://www.w3.org/2000/svg">
<path d="M0.932019 0.0759449C0.802874 0.12282 0.654357 0.187273 0.602698 0.222429C0.434809 0.351336 0.305664 0.68532 0.305664 0.984148C0.305664 1.23024 3.02417 12.4451 3.0952 12.5037C3.11458 12.5213 16.2874 14.5955 17.8888 14.8357C18.3408 14.906 18.7089 14.9763 18.7089 14.9939C18.7089 15.0115 18.3408 15.0818 17.8888 15.1521C16.281 15.3924 3.11458 17.4666 3.0952 17.4841C3.02417 17.5427 0.305664 28.7576 0.305664 29.0037C0.305664 29.6951 0.873904 30.1111 1.59066 29.9353C1.91998 29.8533 31.9269 15.9021 32.1271 15.7322C32.366 15.5388 32.4629 15.322 32.4629 14.9939C32.4629 14.6658 32.366 14.449 32.1271 14.2556C31.9398 14.0974 1.93935 0.134539 1.61003 0.0525074C1.30654 -0.0236645 1.23551 -0.0178051 0.932019 0.0759449Z" fill="white"/>
</svg>
